<?xml version="1.0" encoding="utf-8" standalone="no"?>
<!DOCTYPE svg PUBLIC "-//W3C//DTD SVG 1.1//EN"
  "http://www.w3.org/Graphics/SVG/1.1/DTD/svg11.dtd">
<!-- Created with matplotlib (https://matplotlib.org/) -->
<svg height="360pt" version="1.1" viewBox="0 0 360 360" width="360pt" xmlns="http://www.w3.org/2000/svg" xmlns:xlink="http://www.w3.org/1999/xlink">
 <metadata>
  <rdf:RDF xmlns:cc="http://creativecommons.org/ns#" xmlns:dc="http://purl.org/dc/elements/1.1/" xmlns:rdf="http://www.w3.org/1999/02/22-rdf-syntax-ns#">
   <cc:Work>
    <dc:type rdf:resource="http://purl.org/dc/dcmitype/StillImage"/>
    <dc:date>2021-01-25T08:56:59.175790</dc:date>
    <dc:format>image/svg+xml</dc:format>
    <dc:creator>
     <cc:Agent>
      <dc:title>Matplotlib v3.3.3, https://matplotlib.org/</dc:title>
     </cc:Agent>
    </dc:creator>
   </cc:Work>
  </rdf:RDF>
 </metadata>
 <defs>
  <style type="text/css">*{stroke-linecap:butt;stroke-linejoin:round;}</style>
 </defs>
 <g id="figure_1">
  <g id="patch_1">
   <path d="M 0 360 
L 360 360 
L 360 0 
L 0 0 
z
" style="fill:#ffffff;"/>
  </g>
  <g id="axes_1">
   <g id="patch_2">
    <path d="M 72.191267 290.327662 
L 340.56 290.327662 
L 340.56 20.172338 
L 72.191267 20.172338 
z
" style="fill:#ffffff;"/>
   </g>
   <g id="matplotlib.axis_1">
    <g id="xtick_1">
     <g id="line2d_1">
      <defs>
       <path d="M 0 0 
L 0 9 
" id="m50ed4d8389" style="stroke:#262626;stroke-width:1.875;"/>
      </defs>
      <g>
       <use style="fill:#262626;stroke:#262626;stroke-width:1.875;" x="82.40512" xlink:href="#m50ed4d8389" y="290.327662"/>
      </g>
     </g>
     <g id="text_1">
      <!-- 0.0 -->
      <g style="fill:#262626;" transform="translate(70.93762 314.638052)scale(0.165 -0.165)">
       <defs>
        <path d="M 4.15625 35.296875 
Q 4.15625 48 6.765625 55.734375 
Q 9.375 63.484375 14.515625 67.671875 
Q 19.671875 71.875 27.484375 71.875 
Q 33.25 71.875 37.59375 69.546875 
Q 41.9375 67.234375 44.765625 62.859375 
Q 47.609375 58.5 49.21875 52.21875 
Q 50.828125 45.953125 50.828125 35.296875 
Q 50.828125 22.703125 48.234375 14.96875 
Q 45.65625 7.234375 40.5 3 
Q 35.359375 -1.21875 27.484375 -1.21875 
Q 17.140625 -1.21875 11.234375 6.203125 
Q 4.15625 15.140625 4.15625 35.296875 
z
M 13.1875 35.296875 
Q 13.1875 17.671875 17.3125 11.828125 
Q 21.4375 6 27.484375 6 
Q 33.546875 6 37.671875 11.859375 
Q 41.796875 17.71875 41.796875 35.296875 
Q 41.796875 52.984375 37.671875 58.78125 
Q 33.546875 64.59375 27.390625 64.59375 
Q 21.34375 64.59375 17.71875 59.46875 
Q 13.1875 52.9375 13.1875 35.296875 
z
" id="ArialMT-48"/>
        <path d="M 9.078125 0 
L 9.078125 10.015625 
L 19.09375 10.015625 
L 19.09375 0 
z
" id="ArialMT-46"/>
       </defs>
       <use xlink:href="#ArialMT-48"/>
       <use x="55.615234" xlink:href="#ArialMT-46"/>
       <use x="83.398438" xlink:href="#ArialMT-48"/>
      </g>
     </g>
    </g>
    <g id="xtick_2">
     <g id="line2d_2">
      <g>
       <use style="fill:#262626;stroke:#262626;stroke-width:1.875;" x="131.59638" xlink:href="#m50ed4d8389" y="290.327662"/>
      </g>
     </g>
     <g id="text_2">
      <!-- 0.2 -->
      <g style="fill:#262626;" transform="translate(120.12888 314.638052)scale(0.165 -0.165)">
       <defs>
        <path d="M 50.34375 8.453125 
L 50.34375 0 
L 3.03125 0 
Q 2.9375 3.171875 4.046875 6.109375 
Q 5.859375 10.9375 9.828125 15.625 
Q 13.8125 20.3125 21.34375 26.46875 
Q 33.015625 36.03125 37.109375 41.625 
Q 41.21875 47.21875 41.21875 52.203125 
Q 41.21875 57.421875 37.46875 61 
Q 33.734375 64.59375 27.734375 64.59375 
Q 21.390625 64.59375 17.578125 60.78125 
Q 13.765625 56.984375 13.71875 50.25 
L 4.6875 51.171875 
Q 5.609375 61.28125 11.65625 66.578125 
Q 17.71875 71.875 27.9375 71.875 
Q 38.234375 71.875 44.234375 66.15625 
Q 50.25 60.453125 50.25 52 
Q 50.25 47.703125 48.484375 43.546875 
Q 46.734375 39.40625 42.65625 34.8125 
Q 38.578125 30.21875 29.109375 22.21875 
Q 21.1875 15.578125 18.9375 13.203125 
Q 16.703125 10.84375 15.234375 8.453125 
z
" id="ArialMT-50"/>
       </defs>
       <use xlink:href="#ArialMT-48"/>
       <use x="55.615234" xlink:href="#ArialMT-46"/>
       <use x="83.398438" xlink:href="#ArialMT-50"/>
      </g>
     </g>
    </g>
    <g id="xtick_3">
     <g id="line2d_3">
      <g>
       <use style="fill:#262626;stroke:#262626;stroke-width:1.875;" x="180.787641" xlink:href="#m50ed4d8389" y="290.327662"/>
      </g>
     </g>
     <g id="text_3">
      <!-- 0.4 -->
      <g style="fill:#262626;" transform="translate(169.320141 314.638052)scale(0.165 -0.165)">
       <defs>
        <path d="M 32.328125 0 
L 32.328125 17.140625 
L 1.265625 17.140625 
L 1.265625 25.203125 
L 33.9375 71.578125 
L 41.109375 71.578125 
L 41.109375 25.203125 
L 50.78125 25.203125 
L 50.78125 17.140625 
L 41.109375 17.140625 
L 41.109375 0 
z
M 32.328125 25.203125 
L 32.328125 57.46875 
L 9.90625 25.203125 
z
" id="ArialMT-52"/>
       </defs>
       <use xlink:href="#ArialMT-48"/>
       <use x="55.615234" xlink:href="#ArialMT-46"/>
       <use x="83.398438" xlink:href="#ArialMT-52"/>
      </g>
     </g>
    </g>
    <g id="xtick_4">
     <g id="line2d_4">
      <g>
       <use style="fill:#262626;stroke:#262626;stroke-width:1.875;" x="229.978901" xlink:href="#m50ed4d8389" y="290.327662"/>
      </g>
     </g>
     <g id="text_4">
      <!-- 0.6 -->
      <g style="fill:#262626;" transform="translate(218.511401 314.638052)scale(0.165 -0.165)">
       <defs>
        <path d="M 49.75 54.046875 
L 41.015625 53.375 
Q 39.84375 58.546875 37.703125 60.890625 
Q 34.125 64.65625 28.90625 64.65625 
Q 24.703125 64.65625 21.53125 62.3125 
Q 17.390625 59.28125 14.984375 53.46875 
Q 12.59375 47.65625 12.5 36.921875 
Q 15.671875 41.75 20.265625 44.09375 
Q 24.859375 46.4375 29.890625 46.4375 
Q 38.671875 46.4375 44.84375 39.96875 
Q 51.03125 33.5 51.03125 23.25 
Q 51.03125 16.5 48.125 10.71875 
Q 45.21875 4.9375 40.140625 1.859375 
Q 35.0625 -1.21875 28.609375 -1.21875 
Q 17.625 -1.21875 10.6875 6.859375 
Q 3.765625 14.9375 3.765625 33.5 
Q 3.765625 54.25 11.421875 63.671875 
Q 18.109375 71.875 29.4375 71.875 
Q 37.890625 71.875 43.28125 67.140625 
Q 48.6875 62.40625 49.75 54.046875 
z
M 13.875 23.1875 
Q 13.875 18.65625 15.796875 14.5 
Q 17.71875 10.359375 21.1875 8.171875 
Q 24.65625 6 28.46875 6 
Q 34.03125 6 38.03125 10.484375 
Q 42.046875 14.984375 42.046875 22.703125 
Q 42.046875 30.125 38.078125 34.390625 
Q 34.125 38.671875 28.125 38.671875 
Q 22.171875 38.671875 18.015625 34.390625 
Q 13.875 30.125 13.875 23.1875 
z
" id="ArialMT-54"/>
       </defs>
       <use xlink:href="#ArialMT-48"/>
       <use x="55.615234" xlink:href="#ArialMT-46"/>
       <use x="83.398438" xlink:href="#ArialMT-54"/>
      </g>
     </g>
    </g>
    <g id="xtick_5">
     <g id="line2d_5">
      <g>
       <use style="fill:#262626;stroke:#262626;stroke-width:1.875;" x="279.170161" xlink:href="#m50ed4d8389" y="290.327662"/>
      </g>
     </g>
     <g id="text_5">
      <!-- 0.8 -->
      <g style="fill:#262626;" transform="translate(267.702661 314.638052)scale(0.165 -0.165)">
       <defs>
        <path d="M 17.671875 38.8125 
Q 12.203125 40.828125 9.5625 44.53125 
Q 6.9375 48.25 6.9375 53.421875 
Q 6.9375 61.234375 12.546875 66.546875 
Q 18.171875 71.875 27.484375 71.875 
Q 36.859375 71.875 42.578125 66.421875 
Q 48.296875 60.984375 48.296875 53.171875 
Q 48.296875 48.1875 45.671875 44.5 
Q 43.0625 40.828125 37.75 38.8125 
Q 44.34375 36.671875 47.78125 31.875 
Q 51.21875 27.09375 51.21875 20.453125 
Q 51.21875 11.28125 44.71875 5.03125 
Q 38.234375 -1.21875 27.640625 -1.21875 
Q 17.046875 -1.21875 10.546875 5.046875 
Q 4.046875 11.328125 4.046875 20.703125 
Q 4.046875 27.6875 7.59375 32.390625 
Q 11.140625 37.109375 17.671875 38.8125 
z
M 15.921875 53.71875 
Q 15.921875 48.640625 19.1875 45.40625 
Q 22.46875 42.1875 27.6875 42.1875 
Q 32.765625 42.1875 36.015625 45.375 
Q 39.265625 48.578125 39.265625 53.21875 
Q 39.265625 58.0625 35.90625 61.359375 
Q 32.5625 64.65625 27.59375 64.65625 
Q 22.5625 64.65625 19.234375 61.421875 
Q 15.921875 58.203125 15.921875 53.71875 
z
M 13.09375 20.65625 
Q 13.09375 16.890625 14.875 13.375 
Q 16.65625 9.859375 20.171875 7.921875 
Q 23.6875 6 27.734375 6 
Q 34.03125 6 38.125 10.046875 
Q 42.234375 14.109375 42.234375 20.359375 
Q 42.234375 26.703125 38.015625 30.859375 
Q 33.796875 35.015625 27.4375 35.015625 
Q 21.234375 35.015625 17.15625 30.90625 
Q 13.09375 26.8125 13.09375 20.65625 
z
" id="ArialMT-56"/>
       </defs>
       <use xlink:href="#ArialMT-48"/>
       <use x="55.615234" xlink:href="#ArialMT-46"/>
       <use x="83.398438" xlink:href="#ArialMT-56"/>
      </g>
     </g>
    </g>
    <g id="xtick_6">
     <g id="line2d_6">
      <g>
       <use style="fill:#262626;stroke:#262626;stroke-width:1.875;" x="328.361421" xlink:href="#m50ed4d8389" y="290.327662"/>
      </g>
     </g>
     <g id="text_6">
      <!-- 1.0 -->
      <g style="fill:#262626;" transform="translate(316.893921 314.638052)scale(0.165 -0.165)">
       <defs>
        <path d="M 37.25 0 
L 28.46875 0 
L 28.46875 56 
Q 25.296875 52.984375 20.140625 49.953125 
Q 14.984375 46.921875 10.890625 45.40625 
L 10.890625 53.90625 
Q 18.265625 57.375 23.78125 62.296875 
Q 29.296875 67.234375 31.59375 71.875 
L 37.25 71.875 
z
" id="ArialMT-49"/>
       </defs>
       <use xlink:href="#ArialMT-49"/>
       <use x="55.615234" xlink:href="#ArialMT-46"/>
       <use x="83.398438" xlink:href="#ArialMT-48"/>
      </g>
     </g>
    </g>
    <g id="text_7">
     <!-- Recall -->
     <g style="fill:#262626;" transform="translate(181.366883 334.80149)scale(0.18 -0.18)">
      <defs>
       <path d="M 7.859375 0 
L 7.859375 71.578125 
L 39.59375 71.578125 
Q 49.171875 71.578125 54.140625 69.640625 
Q 59.125 67.71875 62.109375 62.828125 
Q 65.09375 57.953125 65.09375 52.046875 
Q 65.09375 44.4375 60.15625 39.203125 
Q 55.21875 33.984375 44.921875 32.5625 
Q 48.6875 30.765625 50.640625 29 
Q 54.78125 25.203125 58.5 19.484375 
L 70.953125 0 
L 59.03125 0 
L 49.5625 14.890625 
Q 45.40625 21.34375 42.71875 24.75 
Q 40.046875 28.171875 37.921875 29.53125 
Q 35.796875 30.90625 33.59375 31.453125 
Q 31.984375 31.78125 28.328125 31.78125 
L 17.328125 31.78125 
L 17.328125 0 
z
M 17.328125 39.984375 
L 37.703125 39.984375 
Q 44.1875 39.984375 47.84375 41.328125 
Q 51.515625 42.671875 53.421875 45.625 
Q 55.328125 48.578125 55.328125 52.046875 
Q 55.328125 57.125 51.640625 60.390625 
Q 47.953125 63.671875 39.984375 63.671875 
L 17.328125 63.671875 
z
" id="ArialMT-82"/>
       <path d="M 42.09375 16.703125 
L 51.171875 15.578125 
Q 49.03125 7.625 43.21875 3.21875 
Q 37.40625 -1.171875 28.375 -1.171875 
Q 17 -1.171875 10.328125 5.828125 
Q 3.65625 12.84375 3.65625 25.484375 
Q 3.65625 38.578125 10.390625 45.796875 
Q 17.140625 53.03125 27.875 53.03125 
Q 38.28125 53.03125 44.875 45.953125 
Q 51.46875 38.875 51.46875 26.03125 
Q 51.46875 25.25 51.421875 23.6875 
L 12.75 23.6875 
Q 13.234375 15.140625 17.578125 10.59375 
Q 21.921875 6.0625 28.421875 6.0625 
Q 33.25 6.0625 36.671875 8.59375 
Q 40.09375 11.140625 42.09375 16.703125 
z
M 13.234375 30.90625 
L 42.1875 30.90625 
Q 41.609375 37.453125 38.875 40.71875 
Q 34.671875 45.796875 27.984375 45.796875 
Q 21.921875 45.796875 17.796875 41.75 
Q 13.671875 37.703125 13.234375 30.90625 
z
" id="ArialMT-101"/>
       <path d="M 40.4375 19 
L 49.078125 17.875 
Q 47.65625 8.9375 41.8125 3.875 
Q 35.984375 -1.171875 27.484375 -1.171875 
Q 16.84375 -1.171875 10.375 5.78125 
Q 3.90625 12.75 3.90625 25.734375 
Q 3.90625 34.125 6.6875 40.421875 
Q 9.46875 46.734375 15.15625 49.875 
Q 20.84375 53.03125 27.546875 53.03125 
Q 35.984375 53.03125 41.359375 48.75 
Q 46.734375 44.484375 48.25 36.625 
L 39.703125 35.296875 
Q 38.484375 40.53125 35.375 43.15625 
Q 32.28125 45.796875 27.875 45.796875 
Q 21.234375 45.796875 17.078125 41.03125 
Q 12.9375 36.28125 12.9375 25.984375 
Q 12.9375 15.53125 16.9375 10.796875 
Q 20.953125 6.0625 27.390625 6.0625 
Q 32.5625 6.0625 36.03125 9.234375 
Q 39.5 12.40625 40.4375 19 
z
" id="ArialMT-99"/>
       <path d="M 40.4375 6.390625 
Q 35.546875 2.25 31.03125 0.53125 
Q 26.515625 -1.171875 21.34375 -1.171875 
Q 12.796875 -1.171875 8.203125 3 
Q 3.609375 7.171875 3.609375 13.671875 
Q 3.609375 17.484375 5.34375 20.625 
Q 7.078125 23.78125 9.890625 25.6875 
Q 12.703125 27.59375 16.21875 28.5625 
Q 18.796875 29.25 24.03125 29.890625 
Q 34.671875 31.15625 39.703125 32.90625 
Q 39.75 34.71875 39.75 35.203125 
Q 39.75 40.578125 37.25 42.78125 
Q 33.890625 45.75 27.25 45.75 
Q 21.046875 45.75 18.09375 43.578125 
Q 15.140625 41.40625 13.71875 35.890625 
L 5.125 37.0625 
Q 6.296875 42.578125 8.984375 45.96875 
Q 11.671875 49.359375 16.75 51.1875 
Q 21.828125 53.03125 28.515625 53.03125 
Q 35.15625 53.03125 39.296875 51.46875 
Q 43.453125 49.90625 45.40625 47.53125 
Q 47.359375 45.171875 48.140625 41.546875 
Q 48.578125 39.3125 48.578125 33.453125 
L 48.578125 21.734375 
Q 48.578125 9.46875 49.140625 6.21875 
Q 49.703125 2.984375 51.375 0 
L 42.1875 0 
Q 40.828125 2.734375 40.4375 6.390625 
z
M 39.703125 26.03125 
Q 34.90625 24.078125 25.34375 22.703125 
Q 19.921875 21.921875 17.671875 20.9375 
Q 15.4375 19.96875 14.203125 18.09375 
Q 12.984375 16.21875 12.984375 13.921875 
Q 12.984375 10.40625 15.640625 8.0625 
Q 18.3125 5.71875 23.4375 5.71875 
Q 28.515625 5.71875 32.46875 7.9375 
Q 36.421875 10.15625 38.28125 14.015625 
Q 39.703125 17 39.703125 22.796875 
z
" id="ArialMT-97"/>
       <path d="M 6.390625 0 
L 6.390625 71.578125 
L 15.1875 71.578125 
L 15.1875 0 
z
" id="ArialMT-108"/>
      </defs>
      <use xlink:href="#ArialMT-82"/>
      <use x="72.216797" xlink:href="#ArialMT-101"/>
      <use x="127.832031" xlink:href="#ArialMT-99"/>
      <use x="177.832031" xlink:href="#ArialMT-97"/>
      <use x="233.447266" xlink:href="#ArialMT-108"/>
      <use x="255.664062" xlink:href="#ArialMT-108"/>
     </g>
    </g>
   </g>
   <g id="matplotlib.axis_2">
    <g id="ytick_1">
     <g id="line2d_7">
      <defs>
       <path d="M 0 0 
L -9 0 
" id="md6138bb194" style="stroke:#262626;stroke-width:1.875;"/>
      </defs>
      <g>
       <use style="fill:#262626;stroke:#262626;stroke-width:1.875;" x="72.191267" xlink:href="#md6138bb194" y="278.408427"/>
      </g>
     </g>
     <g id="text_8">
      <!-- 0.0 -->
      <g style="fill:#262626;" transform="translate(36.756267 284.313622)scale(0.165 -0.165)">
       <use xlink:href="#ArialMT-48"/>
       <use x="55.615234" xlink:href="#ArialMT-46"/>
       <use x="83.398438" xlink:href="#ArialMT-48"/>
      </g>
     </g>
    </g>
    <g id="ytick_2">
     <g id="line2d_8">
      <g>
       <use style="fill:#262626;stroke:#262626;stroke-width:1.875;" x="72.191267" xlink:href="#md6138bb194" y="229.217167"/>
      </g>
     </g>
     <g id="text_9">
      <!-- 0.2 -->
      <g style="fill:#262626;" transform="translate(36.756267 235.122362)scale(0.165 -0.165)">
       <use xlink:href="#ArialMT-48"/>
       <use x="55.615234" xlink:href="#ArialMT-46"/>
       <use x="83.398438" xlink:href="#ArialMT-50"/>
      </g>
     </g>
    </g>
    <g id="ytick_3">
     <g id="line2d_9">
      <g>
       <use style="fill:#262626;stroke:#262626;stroke-width:1.875;" x="72.191267" xlink:href="#md6138bb194" y="180.025906"/>
      </g>
     </g>
     <g id="text_10">
      <!-- 0.4 -->
      <g style="fill:#262626;" transform="translate(36.756267 185.931102)scale(0.165 -0.165)">
       <use xlink:href="#ArialMT-48"/>
       <use x="55.615234" xlink:href="#ArialMT-46"/>
       <use x="83.398438" xlink:href="#ArialMT-52"/>
      </g>
     </g>
    </g>
    <g id="ytick_4">
     <g id="line2d_10">
      <g>
       <use style="fill:#262626;stroke:#262626;stroke-width:1.875;" x="72.191267" xlink:href="#md6138bb194" y="130.834646"/>
      </g>
     </g>
     <g id="text_11">
      <!-- 0.6 -->
      <g style="fill:#262626;" transform="translate(36.756267 136.739842)scale(0.165 -0.165)">
       <use xlink:href="#ArialMT-48"/>
       <use x="55.615234" xlink:href="#ArialMT-46"/>
       <use x="83.398438" xlink:href="#ArialMT-54"/>
      </g>
     </g>
    </g>
    <g id="ytick_5">
     <g id="line2d_11">
      <g>
       <use style="fill:#262626;stroke:#262626;stroke-width:1.875;" x="72.191267" xlink:href="#md6138bb194" y="81.643386"/>
      </g>
     </g>
     <g id="text_12">
      <!-- 0.8 -->
      <g style="fill:#262626;" transform="translate(36.756267 87.548581)scale(0.165 -0.165)">
       <use xlink:href="#ArialMT-48"/>
       <use x="55.615234" xlink:href="#ArialMT-46"/>
       <use x="83.398438" xlink:href="#ArialMT-56"/>
      </g>
     </g>
    </g>
    <g id="ytick_6">
     <g id="line2d_12">
      <g>
       <use style="fill:#262626;stroke:#262626;stroke-width:1.875;" x="72.191267" xlink:href="#md6138bb194" y="32.452126"/>
      </g>
     </g>
     <g id="text_13">
      <!-- 1.0 -->
      <g style="fill:#262626;" transform="translate(36.756267 38.357321)scale(0.165 -0.165)">
       <use xlink:href="#ArialMT-49"/>
       <use x="55.615234" xlink:href="#ArialMT-46"/>
       <use x="83.398438" xlink:href="#ArialMT-48"/>
      </g>
     </g>
    </g>
    <g id="text_14">
     <!-- Precision -->
     <g style="fill:#262626;" transform="translate(29.178767 192.263906)rotate(-90)scale(0.18 -0.18)">
      <defs>
       <path d="M 7.71875 0 
L 7.71875 71.578125 
L 34.71875 71.578125 
Q 41.84375 71.578125 45.609375 70.90625 
Q 50.875 70.015625 54.4375 67.546875 
Q 58.015625 65.09375 60.1875 60.640625 
Q 62.359375 56.203125 62.359375 50.875 
Q 62.359375 41.75 56.546875 35.421875 
Q 50.734375 29.109375 35.546875 29.109375 
L 17.1875 29.109375 
L 17.1875 0 
z
M 17.1875 37.546875 
L 35.6875 37.546875 
Q 44.875 37.546875 48.734375 40.96875 
Q 52.59375 44.390625 52.59375 50.59375 
Q 52.59375 55.078125 50.3125 58.265625 
Q 48.046875 61.46875 44.34375 62.5 
Q 41.9375 63.140625 35.5 63.140625 
L 17.1875 63.140625 
z
" id="ArialMT-80"/>
       <path d="M 6.5 0 
L 6.5 51.859375 
L 14.40625 51.859375 
L 14.40625 44 
Q 17.4375 49.515625 20 51.265625 
Q 22.5625 53.03125 25.640625 53.03125 
Q 30.078125 53.03125 34.671875 50.203125 
L 31.640625 42.046875 
Q 28.421875 43.953125 25.203125 43.953125 
Q 22.3125 43.953125 20.015625 42.21875 
Q 17.71875 40.484375 16.75 37.40625 
Q 15.28125 32.71875 15.28125 27.15625 
L 15.28125 0 
z
" id="ArialMT-114"/>
       <path d="M 6.640625 61.46875 
L 6.640625 71.578125 
L 15.4375 71.578125 
L 15.4375 61.46875 
z
M 6.640625 0 
L 6.640625 51.859375 
L 15.4375 51.859375 
L 15.4375 0 
z
" id="ArialMT-105"/>
       <path d="M 3.078125 15.484375 
L 11.765625 16.84375 
Q 12.5 11.625 15.84375 8.84375 
Q 19.1875 6.0625 25.203125 6.0625 
Q 31.25 6.0625 34.171875 8.515625 
Q 37.109375 10.984375 37.109375 14.3125 
Q 37.109375 17.28125 34.515625 19 
Q 32.71875 20.171875 25.53125 21.96875 
Q 15.875 24.421875 12.140625 26.203125 
Q 8.40625 27.984375 6.46875 31.125 
Q 4.546875 34.28125 4.546875 38.09375 
Q 4.546875 41.546875 6.125 44.5 
Q 7.71875 47.46875 10.453125 49.421875 
Q 12.5 50.921875 16.03125 51.96875 
Q 19.578125 53.03125 23.640625 53.03125 
Q 29.734375 53.03125 34.34375 51.265625 
Q 38.96875 49.515625 41.15625 46.5 
Q 43.359375 43.5 44.1875 38.484375 
L 35.59375 37.3125 
Q 35.015625 41.3125 32.203125 43.546875 
Q 29.390625 45.796875 24.265625 45.796875 
Q 18.21875 45.796875 15.625 43.796875 
Q 13.03125 41.796875 13.03125 39.109375 
Q 13.03125 37.40625 14.109375 36.03125 
Q 15.1875 34.625 17.484375 33.6875 
Q 18.796875 33.203125 25.25 31.453125 
Q 34.578125 28.953125 38.25 27.359375 
Q 41.9375 25.78125 44.03125 22.75 
Q 46.140625 19.734375 46.140625 15.234375 
Q 46.140625 10.84375 43.578125 6.953125 
Q 41.015625 3.078125 36.171875 0.953125 
Q 31.34375 -1.171875 25.25 -1.171875 
Q 15.140625 -1.171875 9.84375 3.03125 
Q 4.546875 7.234375 3.078125 15.484375 
z
" id="ArialMT-115"/>
       <path d="M 3.328125 25.921875 
Q 3.328125 40.328125 11.328125 47.265625 
Q 18.015625 53.03125 27.640625 53.03125 
Q 38.328125 53.03125 45.109375 46.015625 
Q 51.90625 39.015625 51.90625 26.65625 
Q 51.90625 16.65625 48.90625 10.90625 
Q 45.90625 5.171875 40.15625 2 
Q 34.421875 -1.171875 27.640625 -1.171875 
Q 16.75 -1.171875 10.03125 5.8125 
Q 3.328125 12.796875 3.328125 25.921875 
z
M 12.359375 25.921875 
Q 12.359375 15.96875 16.703125 11.015625 
Q 21.046875 6.0625 27.640625 6.0625 
Q 34.1875 6.0625 38.53125 11.03125 
Q 42.875 16.015625 42.875 26.21875 
Q 42.875 35.84375 38.5 40.796875 
Q 34.125 45.75 27.640625 45.75 
Q 21.046875 45.75 16.703125 40.8125 
Q 12.359375 35.890625 12.359375 25.921875 
z
" id="ArialMT-111"/>
       <path d="M 6.59375 0 
L 6.59375 51.859375 
L 14.5 51.859375 
L 14.5 44.484375 
Q 20.21875 53.03125 31 53.03125 
Q 35.6875 53.03125 39.625 51.34375 
Q 43.5625 49.65625 45.515625 46.921875 
Q 47.46875 44.1875 48.25 40.4375 
Q 48.734375 37.984375 48.734375 31.890625 
L 48.734375 0 
L 39.9375 0 
L 39.9375 31.546875 
Q 39.9375 36.921875 38.90625 39.578125 
Q 37.890625 42.234375 35.28125 43.8125 
Q 32.671875 45.40625 29.15625 45.40625 
Q 23.53125 45.40625 19.453125 41.84375 
Q 15.375 38.28125 15.375 28.328125 
L 15.375 0 
z
" id="ArialMT-110"/>
      </defs>
      <use xlink:href="#ArialMT-80"/>
      <use x="66.699219" xlink:href="#ArialMT-114"/>
      <use x="100" xlink:href="#ArialMT-101"/>
      <use x="155.615234" xlink:href="#ArialMT-99"/>
      <use x="205.615234" xlink:href="#ArialMT-105"/>
      <use x="227.832031" xlink:href="#ArialMT-115"/>
      <use x="277.832031" xlink:href="#ArialMT-105"/>
      <use x="300.048828" xlink:href="#ArialMT-111"/>
      <use x="355.664062" xlink:href="#ArialMT-110"/>
     </g>
    </g>
   </g>
   <g id="line2d_13">
    <path clip-path="url(#p6cb54b8477)" d="M 328.361421 278.020034 
L 328.251159 277.908548 
L 328.05623 277.784956 
L 327.949906 277.701802 
L 327.751039 277.58714 
L 327.642746 277.524048 
L 327.380872 277.39706 
L 327.27061 277.3452 
L 326.928008 277.176754 
L 326.817746 277.108569 
L 326.69567 276.96429 
L 326.585407 276.832239 
L 326.447579 276.661822 
L 326.337316 276.488287 
L 326.201457 276.299029 
L 326.091195 276.193766 
L 325.945491 276.034369 
L 325.835228 275.841627 
L 325.709214 275.679158 
L 325.598951 275.522329 
L 325.114584 274.920375 
L 325.004321 274.746234 
L 324.907842 274.603778 
L 322.056768 270.539756 
L 321.946505 270.404365 
L 316.409752 262.81074 
L 316.147878 262.630105 
L 315.97264 262.458458 
L 315.744239 262.267641 
L 315.582783 262.040291 
L 315.43511 261.827265 
L 312.444239 258.22778 
L 312.178428 257.882299 
L 311.317986 256.966186 
L 310.223237 255.434442 
L 309.541972 254.448405 
L 308.896149 253.565709 
L 308.626399 253.088093 
L 308.084932 252.192953 
L 307.909693 252.045896 
L 307.673416 251.678749 
L 304.343882 245.868985 
L 304.099729 245.392533 
L 303.851638 244.976942 
L 302.947879 243.397956 
L 302.611185 242.749823 
L 302.414288 242.366344 
L 297.885648 234.563294 
L 297.224073 233.446027 
L 296.869658 232.848973 
L 293.853191 227.641935 
L 292.992749 225.907989 
L 284.921927 210.743932 
L 284.563573 210.090522 
L 281.915304 204.955863 
L 281.48213 203.721066 
L 280.913096 202.458014 
L 280.320435 201.164676 
L 279.767154 199.811184 
L 279.129206 198.423315 
L 277.853311 195.458092 
L 277.231116 193.843401 
L 274.44108 187.482105 
L 272.993885 184.209374 
L 268.171868 175.131738 
L 266.769959 172.950476 
L 265.44484 170.519947 
L 265.035294 169.624371 
L 264.060652 167.946838 
L 262.782788 165.214433 
L 261.418289 162.263531 
L 260.439709 160.260968 
L 259.213039 158.327427 
L 257.431118 155.234205 
L 256.816798 154.06301 
L 255.460175 151.929813 
L 254.247287 149.48526 
L 252.587443 147.147498 
L 251.71125 145.918031 
L 250.970915 144.615713 
L 249.996274 143.430435 
L 249.228374 142.019307 
L 248.385653 140.758723 
L 245.455821 134.458343 
L 242.628375 129.958622 
L 240.533387 127.030114 
L 238.51322 123.844531 
L 232.271574 115.316082 
L 231.229987 113.400598 
L 226.955345 107.971155 
L 221.28667 100.306755 
L 219.658329 98.358 
L 218.201289 96.271783 
L 214.391325 92.563995 
L 210.731003 88.446278 
L 208.813223 86.418609 
L 206.635538 84.709704 
L 204.680347 82.679064 
L 202.5066 80.670207 
L 198.352066 76.261451 
L 193.157914 72.781341 
L 182.63375 65.041472 
L 179.843715 63.07265 
L 176.992641 60.229224 
L 173.777307 58.36123 
L 170.140613 56.770204 
L 163.434289 53.318593 
L 159.401831 51.801105 
L 147.418658 47.97967 
L 142.539542 47.049816 
L 138.390914 45.182206 
L 134.151714 43.54259 
L 125.094436 40.728869 
L 119.685666 39.235472 
L 114.82427 37.771996 
L 110.262158 36.605234 
L 104.798256 35.717032 
L 100.690978 34.47462 
L 96.546288 34.051233 
L 92.462637 33.935808 
L 88.790501 33.208216 
L 84.389845 32.452126 
L 84.389845 32.452126 
" style="fill:none;stroke:#a6cee3;stroke-linecap:round;stroke-width:2.25;"/>
   </g>
   <g id="line2d_14">
    <defs>
     <path d="M 0 4.5 
C 1.193414 4.5 2.338109 4.025852 3.181981 3.181981 
C 4.025852 2.338109 4.5 1.193414 4.5 0 
C 4.5 -1.193414 4.025852 -2.338109 3.181981 -3.181981 
C 2.338109 -4.025852 1.193414 -4.5 0 -4.5 
C -1.193414 -4.5 -2.338109 -4.025852 -3.181981 -3.181981 
C -4.025852 -2.338109 -4.5 -1.193414 -4.5 0 
C -4.5 1.193414 -4.025852 2.338109 -3.181981 3.181981 
C -2.338109 4.025852 -1.193414 4.5 0 4.5 
z
" id="m3346e0bf78" style="stroke:#a6cee3;"/>
    </defs>
    <g clip-path="url(#p6cb54b8477)">
     <use style="fill:#a6cee3;stroke:#a6cee3;" x="231.229987" xlink:href="#m3346e0bf78" y="113.400598"/>
    </g>
   </g>
   <g id="line2d_15">
    <path clip-path="url(#p6cb54b8477)" d="M 328.361421 278.047871 
L 328.234838 277.938638 
L 328.234838 277.936839 
L 328.124178 277.863554 
L 327.798565 277.717834 
L 327.687904 277.679076 
L 327.000057 277.354459 
L 326.890989 277.29695 
L 326.664891 277.160218 
L 326.555026 277.085719 
L 326.013665 276.838809 
L 325.734227 276.657699 
L 323.703327 275.268285 
L 323.187441 275.010377 
L 323.005926 274.919571 
L 321.350794 274.105654 
L 320.985375 273.832427 
L 320.755297 273.701087 
L 320.436053 273.448186 
L 316.79938 271.004158 
L 316.487301 270.834288 
L 316.273941 270.688301 
L 315.912503 270.46464 
L 314.881528 269.79073 
L 314.759722 269.714157 
L 314.432517 269.472867 
L 314.204031 269.299106 
L 312.838686 268.151909 
L 312.590297 267.935305 
L 312.353849 267.746467 
L 311.965343 267.451312 
L 311.572856 267.153893 
L 311.373826 267.007831 
L 307.8916 264.425142 
L 307.686201 264.270137 
L 307.305656 263.963407 
L 305.965787 262.801749 
L 305.744466 262.627873 
L 305.382232 262.27874 
L 297.353368 255.043157 
L 297.125678 254.760843 
L 296.202976 253.900234 
L 295.925926 253.58953 
L 295.351128 253.02913 
L 294.482562 252.070348 
L 291.450939 249.147915 
L 290.818024 248.415178 
L 290.255168 247.885203 
L 285.399636 241.646887 
L 284.805731 240.755039 
L 283.179259 238.589658 
L 282.489023 237.632576 
L 282.05275 237.112493 
L 280.862552 235.597106 
L 280.009112 234.497787 
L 279.57443 233.887022 
L 278.049862 232.041719 
L 275.59861 228.175154 
L 275.362959 227.96493 
L 274.659986 226.897031 
L 272.889416 224.505918 
L 270.379252 220.767027 
L 269.838687 220.015538 
L 267.97736 216.986545 
L 267.494911 216.28628 
L 267.143823 215.757448 
L 266.428111 214.660813 
L 265.913022 213.908093 
L 265.61607 213.530254 
L 264.633658 212.199691 
L 261.690405 207.687967 
L 261.288365 207.250645 
L 260.957179 206.781261 
L 260.598129 206.023462 
L 260.144341 205.288974 
L 259.411115 203.988821 
L 257.821265 201.166969 
L 256.762426 199.453095 
L 256.081744 198.27696 
L 255.061119 196.434585 
L 254.538069 195.478688 
L 254.140805 194.849027 
L 252.823228 192.439987 
L 251.836836 190.638974 
L 248.672261 184.731742 
L 248.185832 183.89598 
L 243.509427 175.718408 
L 242.130548 173.132688 
L 241.22138 171.584429 
L 240.601203 170.463399 
L 239.768462 168.714 
L 235.334077 159.547554 
L 233.815082 156.786323 
L 232.650359 154.576943 
L 231.855832 153.056098 
L 228.730267 146.462061 
L 228.189702 145.585264 
L 227.312379 143.774428 
L 225.045827 138.750788 
L 224.205125 136.608422 
L 217.512945 122.755184 
L 216.708069 121.678363 
L 215.404821 119.361484 
L 212.902618 113.965047 
L 212.067489 112.74911 
L 210.619348 109.943387 
L 209.004022 107.272269 
L 206.395138 102.947296 
L 204.542569 100.153897 
L 203.662857 98.604204 
L 201.666189 95.804082 
L 199.658376 92.753131 
L 198.726917 90.980225 
L 196.495394 88.003846 
L 194.122958 84.831593 
L 193.111091 83.251995 
L 187.911635 77.265554 
L 186.538329 75.544806 
L 185.066304 74.009658 
L 183.770222 72.344586 
L 182.263168 70.88285 
L 177.860628 66.183104 
L 169.428928 58.825751 
L 163.817879 54.861074 
L 157.940129 51.370553 
L 154.191203 49.156001 
L 152.237526 47.763424 
L 148.21792 45.720891 
L 140.216124 41.203264 
L 138.05466 40.422333 
L 134.123422 38.29934 
L 131.985046 37.43587 
L 129.91832 36.748323 
L 127.494933 36.269942 
L 123.763521 35.906437 
L 112.523908 34.086022 
L 106.985306 33.507085 
L 97.884865 32.565918 
L 92.969624 32.452126 
L 86.513096 32.452126 
L 86.513096 32.452126 
" style="fill:none;stroke:#b2df8a;stroke-linecap:round;stroke-width:2.25;"/>
   </g>
   <g id="line2d_16">
    <defs>
     <path d="M 0 4.5 
C 1.193414 4.5 2.338109 4.025852 3.181981 3.181981 
C 4.025852 2.338109 4.5 1.193414 4.5 0 
C 4.5 -1.193414 4.025852 -2.338109 3.181981 -3.181981 
C 2.338109 -4.025852 1.193414 -4.5 0 -4.5 
C -1.193414 -4.5 -2.338109 -4.025852 -3.181981 -3.181981 
C -4.025852 -2.338109 -4.5 -1.193414 -4.5 0 
C -4.5 1.193414 -4.025852 2.338109 -3.181981 3.181981 
C -2.338109 4.025852 -1.193414 4.5 0 4.5 
z
" id="m9436ee3541" style="stroke:#b2df8a;"/>
    </defs>
    <g clip-path="url(#p6cb54b8477)">
     <use style="fill:#b2df8a;stroke:#b2df8a;" x="210.619348" xlink:href="#m9436ee3541" y="109.943387"/>
    </g>
   </g>
   <g id="line2d_17">
    <path clip-path="url(#p6cb54b8477)" d="M 328.361421 277.887357 
L 328.296463 277.77612 
L 328.190906 277.630986 
L 328.069109 277.518223 
L 327.959492 277.444958 
L 327.736198 277.323971 
L 327.626581 277.23828 
L 327.504784 277.118806 
L 327.395167 276.955944 
L 327.27337 276.830815 
L 327.167813 276.652278 
L 327.078496 276.534246 
L 326.972939 276.343425 
L 326.867381 276.221583 
L 326.757764 276.06499 
L 326.660327 275.92519 
L 326.55071 275.797882 
L 326.473572 275.656547 
L 326.363955 275.439912 
L 326.303057 275.296117 
L 326.197499 275.078167 
L 326.116302 274.946656 
L 325.990445 274.75714 
L 325.880828 274.602247 
L 325.722492 274.376042 
L 325.612875 274.19365 
L 325.44236 273.940668 
L 325.336803 273.822052 
L 325.239365 273.680205 
L 325.129748 273.519892 
L 324.784657 273.133425 
L 324.67504 272.981778 
L 324.269051 272.520845 
L 324.163494 272.449869 
L 323.96456 272.302615 
L 323.550451 271.667092 
L 323.440834 271.536461 
L 323.310917 271.365464 
L 323.2013 271.210178 
L 321.435248 268.891253 
L 321.130756 268.63948 
L 321.025199 268.495459 
L 320.651689 268.144222 
L 319.746333 267.049752 
L 319.543339 266.740407 
L 318.824738 265.675568 
L 317.740747 264.068121 
L 317.440315 263.560198 
L 317.204841 263.237601 
L 317.054625 262.998114 
L 316.786673 262.62525 
L 316.640517 262.336866 
L 316.291366 261.911553 
L 316.12897 261.627742 
L 315.885377 261.371442 
L 315.617424 261.049241 
L 314.480655 259.313545 
L 314.314199 259.014189 
L 312.353272 255.614864 
L 312.178697 255.354275 
L 311.943223 254.80598 
L 309.978236 251.684887 
L 309.8402 251.477361 
L 309.572247 251.038317 
L 309.263695 250.424451 
L 308.971383 249.853682 
L 308.277142 249.026693 
L 306.86836 246.492844 
L 306.628826 246.063911 
L 306.230957 245.420105 
L 304.030496 241.63667 
L 303.632627 240.944752 
L 303.068302 239.941727 
L 302.824708 239.485455 
L 301.700119 237.250744 
L 301.407807 236.748315 
L 301.030237 236.043403 
L 300.559289 235.113762 
L 300.015264 234.125916 
L 295.959433 226.330983 
L 295.630582 225.801524 
L 295.220533 224.982118 
L 294.842963 224.069015 
L 293.206827 220.606882 
L 292.821138 219.51364 
L 292.053818 218.124985 
L 291.359577 216.57334 
L 290.348664 214.649401 
L 289.524506 212.9501 
L 288.63133 210.659777 
L 288.123844 209.739929 
L 287.405243 208.220982 
L 285.639191 204.490709 
L 284.461823 202.032022 
L 283.507748 199.529282 
L 283.292574 198.815453 
L 282.358799 196.804082 
L 280.714543 192.375504 
L 279.71581 190.021945 
L 277.604667 184.910807 
L 277.259576 183.974067 
L 276.439478 182.18304 
L 275.976651 181.224828 
L 274.831762 178.065928 
L 273.686873 174.750495 
L 272.854595 172.330204 
L 269.618862 164.560252 
L 268.95304 163.335308 
L 267.804091 160.63598 
L 267.061131 159.25128 
L 265.144862 154.635574 
L 264.430322 153.083669 
L 263.561505 151.584722 
L 261.292026 146.137833 
L 260.342012 144.354994 
L 259.542213 142.589572 
L 257.885778 138.479383 
L 257.037261 136.398946 
L 256.131905 133.810344 
L 254.901758 131.850151 
L 252.510482 126.759202 
L 250.029889 121.895261 
L 247.045869 117.174295 
L 245.702046 114.55434 
L 243.846676 111.813545 
L 242.316097 108.603218 
L 240.509445 105.359172 
L 238.235907 102.31179 
L 236.315578 98.772096 
L 233.904003 95.146869 
L 231.447769 91.191156 
L 228.670804 87.597521 
L 225.719263 84.074487 
L 222.1425 80.868585 
L 217.591362 77.937154 
L 213.405615 74.663511 
L 209.146789 71.033506 
L 199.796861 64.196787 
L 195.306622 60.663655 
L 190.264238 56.988582 
L 184.511372 54.301443 
L 178.799106 51.340208 
L 173.030001 48.209829 
L 166.534176 46.042854 
L 160.257585 43.255711 
L 154.058132 40.838223 
L 147.619145 38.588343 
L 133.482606 35.502687 
L 127.526746 34.384295 
L 121.769821 33.512935 
L 113.032936 33.167304 
L 101.778919 32.452126 
L 87.99153 32.452126 
L 87.99153 32.452126 
" style="fill:none;stroke:#fb9a99;stroke-linecap:round;stroke-width:2.25;"/>
   </g>
   <g id="line2d_18">
    <defs>
     <path d="M 0 4.5 
C 1.193414 4.5 2.338109 4.025852 3.181981 3.181981 
C 4.025852 2.338109 4.5 1.193414 4.5 0 
C 4.5 -1.193414 4.025852 -2.338109 3.181981 -3.181981 
C 2.338109 -4.025852 1.193414 -4.5 0 -4.5 
C -1.193414 -4.5 -2.338109 -4.025852 -3.181981 -3.181981 
C -4.025852 -2.338109 -4.5 -1.193414 -4.5 0 
C -4.5 1.193414 -4.025852 2.338109 -3.181981 3.181981 
C -2.338109 4.025852 -1.193414 4.5 0 4.5 
z
" id="m6aad35c53c" style="stroke:#fb9a99;"/>
    </defs>
    <g clip-path="url(#p6cb54b8477)">
     <use style="fill:#fb9a99;stroke:#fb9a99;" x="231.447769" xlink:href="#m6aad35c53c" y="91.191156"/>
    </g>
   </g>
   <g id="line2d_19">
    <path clip-path="url(#p6cb54b8477)" d="M 328.361421 278.016481 
L 328.257066 277.9049 
L 328.148772 277.805534 
L 327.802233 277.693264 
L 327.703784 277.626214 
L 327.428128 277.511214 
L 327.333617 277.438365 
L 327.034333 277.323853 
L 326.924071 277.18807 
L 326.801994 277.048318 
L 326.691732 276.887812 
L 326.609035 276.748434 
L 326.512555 276.564664 
L 326.398355 276.450242 
L 326.288092 276.304878 
L 326.191612 276.141515 
L 326.08135 275.937689 
L 326.002591 275.76801 
L 325.894297 275.559857 
L 325.821445 275.44431 
L 325.711183 275.037861 
L 325.658021 274.843361 
L 325.547758 274.470599 
L 325.268164 273.907577 
L 325.157901 273.578454 
L 325.024011 273.121088 
L 324.913749 272.889329 
L 324.864524 272.720468 
L 324.756231 272.121961 
L 324.707006 271.911296 
L 324.598713 271.416985 
L 324.563271 271.254948 
L 324.453009 270.874344 
L 323.901696 269.193531 
L 323.791434 268.676786 
L 322.816792 264.351465 
L 322.708498 263.759969 
L 322.669119 263.446298 
L 322.558856 262.960903 
L 322.373773 262.517435 
L 322.26351 261.957475 
L 322.107961 261.433268 
L 322.001637 261.050692 
L 321.759453 259.568123 
L 321.288868 257.335158 
L 321.19042 256.937882 
L 320.782842 254.666901 
L 320.643045 253.621522 
L 320.595789 253.21369 
L 320.140957 251.170461 
L 320.05826 250.95203 
L 319.92437 250.240793 
L 319.632961 248.539687 
L 319.534513 247.814404 
L 319.44394 247.270943 
L 319.150563 245.072846 
L 318.902472 243.585342 
L 318.748892 242.508864 
L 318.164107 238.3026 
L 318.012496 236.995851 
L 317.715181 234.565328 
L 316.766136 227.504178 
L 316.403845 224.076825 
L 313.255456 198.605408 
L 312.926637 195.851587 
L 311.581829 183.41736 
L 310.258678 172.620122 
L 309.953487 171.791753 
L 309.746745 169.423622 
L 309.553786 167.837882 
L 309.246626 165.207432 
L 307.189049 151.888339 
L 305.828488 141.612933 
L 304.02097 129.693859 
L 303.361364 125.315503 
L 300.132247 106.449108 
L 297.934873 97.024934 
L 296.696388 91.144738 
L 294.530518 82.483578 
L 292.99078 78.299506 
L 290.968644 73.892137 
L 289.247761 69.414207 
L 288.259337 67.20289 
L 287.164587 65.066861 
L 284.488752 61.093846 
L 282.82497 59.193623 
L 281.326581 57.23231 
L 277.424075 53.905954 
L 275.303491 52.421399 
L 273.295138 50.751733 
L 270.824076 49.099064 
L 268.315604 47.568452 
L 257.824912 42.89141 
L 248.444722 39.638333 
L 244.546155 38.62804 
L 237.069962 37.172369 
L 225.049379 35.998961 
L 220.477422 35.633774 
L 196.674501 34.482217 
L 191.068833 34.182436 
L 180.030767 33.91665 
L 174.169133 33.821873 
L 161.000638 33.140304 
L 130.367347 32.935835 
L 122.030713 32.964357 
L 113.316036 32.733809 
L 87.534296 32.452126 
L 87.534296 32.452126 
" style="fill:none;stroke:#1f78b4;stroke-linecap:round;stroke-width:2.25;"/>
   </g>
   <g id="line2d_20">
    <defs>
     <path d="M 0 4.5 
C 1.193414 4.5 2.338109 4.025852 3.181981 3.181981 
C 4.025852 2.338109 4.5 1.193414 4.5 0 
C 4.5 -1.193414 4.025852 -2.338109 3.181981 -3.181981 
C 2.338109 -4.025852 1.193414 -4.5 0 -4.5 
C -1.193414 -4.5 -2.338109 -4.025852 -3.181981 -3.181981 
C -4.025852 -2.338109 -4.5 -1.193414 -4.5 0 
C -4.5 1.193414 -4.025852 2.338109 -3.181981 3.181981 
C -2.338109 4.025852 -1.193414 4.5 0 4.5 
z
" id="m4981c8fe95" style="stroke:#1f78b4;"/>
    </defs>
    <g clip-path="url(#p6cb54b8477)">
     <use style="fill:#1f78b4;stroke:#1f78b4;" x="281.326581" xlink:href="#m4981c8fe95" y="57.23231"/>
    </g>
   </g>
   <g id="line2d_21">
    <path clip-path="url(#p6cb54b8477)" d="M 328.361421 278.041024 
L 328.15045 277.926661 
L 328.045362 277.823474 
L 327.829613 277.709404 
L 327.48569 277.503072 
L 327.378214 277.43306 
L 327.21899 277.315529 
L 326.129103 276.516119 
L 326.019238 276.422901 
L 325.87514 276.263487 
L 325.76448 276.125894 
L 325.484246 275.738762 
L 325.373585 275.623182 
L 325.187293 275.45211 
L 324.478747 274.579141 
L 323.802842 273.611619 
L 323.718453 273.481744 
L 323.29651 272.972242 
L 323.146043 272.764733 
L 322.071282 271.076401 
L 321.604756 270.3254 
L 321.315765 269.864132 
L 321.038715 269.424814 
L 320.873122 269.14602 
L 320.719471 268.791451 
L 320.253742 267.984036 
L 319.809507 267.352671 
L 319.593759 266.89739 
L 319.473545 266.602351 
L 319.336612 266.331134 
L 319.197291 266.128699 
L 318.80162 265.158363 
L 318.61692 264.719988 
L 318.444162 264.354546 
L 317.229284 262.353559 
L 316.999206 261.88713 
L 316.828836 261.538773 
L 316.675981 261.284235 
L 316.322504 260.454608 
L 316.129843 260.028628 
L 315.969823 259.656996 
L 315.652968 258.922182 
L 315.538327 258.647152 
L 315.032791 257.316093 
L 314.910188 256.908312 
L 314.182535 254.972433 
L 313.879214 254.290359 
L 313.270183 252.464526 
L 312.786142 251.225994 
L 312.561636 250.732118 
L 309.686849 242.863449 
L 309.440848 242.061778 
L 309.336557 241.670371 
L 308.18298 238.437036 
L 306.086798 230.849144 
L 305.916428 230.270521 
L 305.301824 227.721426 
L 304.846444 226.092601 
L 304.678462 225.52444 
L 304.331354 224.199603 
L 303.371234 219.977835 
L 302.78529 217.893528 
L 300.471768 208.239497 
L 300.173223 207.289726 
L 299.36755 204.488112 
L 298.734635 201.720824 
L 298.432906 199.778551 
L 294.324134 179.499462 
L 293.856016 177.444503 
L 293.60683 176.190314 
L 293.070246 173.560998 
L 292.848129 172.713433 
L 292.520924 170.867231 
L 291.5616 165.618387 
L 290.478877 160.974852 
L 290.149284 159.315959 
L 285.339131 139.594029 
L 284.444293 136.699555 
L 281.872827 128.371903 
L 280.527385 123.637806 
L 279.634139 119.72781 
L 278.172464 113.117393 
L 277.110441 107.725187 
L 276.183758 104.295695 
L 274.163207 97.418553 
L 273.108349 93.800746 
L 270.53768 84.24827 
L 269.512278 81.127654 
L 268.023535 76.395205 
L 266.881899 73.606143 
L 264.920261 69.268075 
L 264.183055 67.59428 
L 262.470602 64.687979 
L 260.879955 61.774581 
L 258.608627 59.047621 
L 256.541901 56.106949 
L 255.406635 54.727009 
L 252.89647 51.898008 
L 251.616311 50.459993 
L 246.939109 46.893917 
L 241.880567 43.610859 
L 235.882604 40.882139 
L 231.268296 39.425331 
L 223.740987 37.639618 
L 220.962531 37.219338 
L 217.749393 36.898617 
L 214.811712 36.408461 
L 198.621033 35.138497 
L 188.521463 34.477986 
L 177.416394 33.804852 
L 161.496395 33.391785 
L 157.385234 33.352397 
L 145.153656 32.922429 
L 130.130884 32.829008 
L 106.888975 32.715762 
L 100.917284 32.473279 
L 91.924319 32.493259 
L 91.924319 32.493259 
" style="fill:none;stroke:#33a02c;stroke-linecap:round;stroke-width:2.25;"/>
   </g>
   <g id="line2d_22">
    <defs>
     <path d="M 0 4.5 
C 1.193414 4.5 2.338109 4.025852 3.181981 3.181981 
C 4.025852 2.338109 4.5 1.193414 4.5 0 
C 4.5 -1.193414 4.025852 -2.338109 3.181981 -3.181981 
C 2.338109 -4.025852 1.193414 -4.5 0 -4.5 
C -1.193414 -4.5 -2.338109 -4.025852 -3.181981 -3.181981 
C -4.025852 -2.338109 -4.5 -1.193414 -4.5 0 
C -4.5 1.193414 -4.025852 2.338109 -3.181981 3.181981 
C -2.338109 4.025852 -1.193414 4.5 0 4.5 
z
" id="mf27a9bc855" style="stroke:#33a02c;"/>
    </defs>
    <g clip-path="url(#p6cb54b8477)">
     <use style="fill:#33a02c;stroke:#33a02c;" x="260.879955" xlink:href="#mf27a9bc855" y="61.774581"/>
    </g>
   </g>
   <g id="line2d_23">
    <path clip-path="url(#p6cb54b8477)" d="M 328.361421 277.885521 
L 328.292403 277.774128 
L 328.182786 277.66725 
L 328.105648 277.553966 
L 328.000091 277.429508 
L 327.878294 277.315616 
L 327.768677 277.211689 
L 327.65906 277.091689 
L 327.553503 276.926418 
L 327.435766 276.809452 
L 327.330209 276.701776 
L 327.269311 276.586431 
L 327.159694 276.463273 
L 327.074436 276.334594 
L 326.968879 276.135143 
L 326.9161 276.017606 
L 326.806483 275.817458 
L 326.761824 275.688427 
L 326.652207 275.345193 
L 326.607548 275.223843 
L 326.497931 275.055936 
L 326.424853 274.937707 
L 326.347715 274.779517 
L 326.238098 274.643766 
L 326.19344 274.495385 
L 326.083823 274.315113 
L 326.010744 274.143803 
L 325.901127 273.932776 
L 325.880828 273.811529 
L 325.771211 273.484394 
L 325.710313 273.289101 
L 325.612875 273.108828 
L 325.527617 272.979422 
L 325.43424 272.746058 
L 325.328683 272.554235 
L 325.296204 272.420831 
L 325.194706 272.0358 
L 325.145988 271.903117 
L 325.036371 271.50333 
L 324.841496 271.057715 
L 324.731879 270.765851 
L 324.597902 270.565928 
L 324.492345 270.333601 
L 324.362429 270.091685 
L 324.252812 269.792773 
L 324.001099 269.077389 
L 323.895541 268.791075 
L 323.822463 268.657576 
L 323.461133 267.474945 
L 323.351516 267.214535 
L 322.645095 265.366569 
L 321.881836 263.455848 
L 321.772219 262.989854 
L 321.674781 262.743462 
L 321.565164 262.402035 
L 321.394649 261.989138 
L 320.156382 258.794208 
L 320.050825 258.553354 
L 319.87219 258.142706 
L 319.746333 257.839029 
L 319.583937 257.672181 
L 319.060212 256.153132 
L 318.905936 255.837561 
L 318.788199 255.687694 
L 318.585204 255.20352 
L 318.345671 254.70863 
L 317.976221 253.884942 
L 317.756987 253.453387 
L 316.847571 250.082152 
L 316.181749 248.43303 
L 316.088371 248.050816 
L 315.77982 247.382822 
L 315.471268 246.255113 
L 315.341352 245.935614 
L 314.975961 244.6922 
L 314.119324 242.088537 
L 313.969109 241.702575 
L 313.481922 240.113811 
L 313.372305 239.628938 
L 313.035334 238.367849 
L 312.78768 237.394147 
L 309.283995 225.303092 
L 309.060701 224.453118 
L 308.301501 221.081266 
L 308.053848 220.10441 
L 303.665106 203.23768 
L 303.445872 202.114175 
L 300.53493 190.774037 
L 296.645555 174.026046 
L 295.573744 170.654657 
L 295.32203 169.299789 
L 294.57907 166.643937 
L 291.160642 154.691618 
L 290.567898 153.17588 
L 289.75592 149.80236 
L 288.968301 146.243769 
L 287.90867 142.718567 
L 285.992401 134.54806 
L 285.31846 132.413772 
L 284.258828 127.728863 
L 282.902825 123.059824 
L 282.253242 120.449981 
L 279.541235 112.304114 
L 278.851054 109.450087 
L 276.906366 103.833639 
L 275.607201 101.031543 
L 272.383648 95.314581 
L 271.023584 92.257351 
L 269.696 88.839541 
L 266.565824 81.905903 
L 264.267926 78.64753 
L 262.132424 75.390835 
L 259.65995 71.398131 
L 254.09384 63.980694 
L 250.468357 60.232692 
L 246.392227 56.27067 
L 241.958826 54.03325 
L 227.672071 47.404348 
L 222.617507 45.546241 
L 216.706306 43.955082 
L 210.827584 42.583817 
L 204.441376 41.3633 
L 197.23507 40.151422 
L 182.919895 38.866863 
L 175.575553 38.239456 
L 161.796284 36.667601 
L 154.809212 35.905957 
L 147.728762 35.352483 
L 141.419692 34.282733 
L 125.192309 33.682836 
L 117.620612 33.215351 
L 109.427753 32.968376 
L 101.490667 33.078367 
L 93.212549 33.005251 
L 85.165846 33.173405 
L 85.165846 33.173405 
" style="fill:none;stroke:#e31a1c;stroke-linecap:round;stroke-width:2.25;"/>
   </g>
   <g id="line2d_24">
    <defs>
     <path d="M 0 4.5 
C 1.193414 4.5 2.338109 4.025852 3.181981 3.181981 
C 4.025852 2.338109 4.5 1.193414 4.5 0 
C 4.5 -1.193414 4.025852 -2.338109 3.181981 -3.181981 
C 2.338109 -4.025852 1.193414 -4.5 0 -4.5 
C -1.193414 -4.5 -2.338109 -4.025852 -3.181981 -3.181981 
C -4.025852 -2.338109 -4.5 -1.193414 -4.5 0 
C -4.5 1.193414 -4.025852 2.338109 -3.181981 3.181981 
C -2.338109 4.025852 -1.193414 4.5 0 4.5 
z
" id="m1962407ae4" style="stroke:#e31a1c;"/>
    </defs>
    <g clip-path="url(#p6cb54b8477)">
     <use style="fill:#e31a1c;stroke:#e31a1c;" x="259.65995" xlink:href="#m1962407ae4" y="71.398131"/>
    </g>
   </g>
   <g id="patch_3">
    <path d="M 72.191267 290.327662 
L 72.191267 20.172338 
" style="fill:none;stroke:#262626;stroke-linecap:square;stroke-linejoin:miter;stroke-width:1.875;"/>
   </g>
   <g id="patch_4">
    <path d="M 72.191267 290.327662 
L 340.56 290.327662 
" style="fill:none;stroke:#262626;stroke-linecap:square;stroke-linejoin:miter;stroke-width:1.875;"/>
   </g>
   <g id="legend_1">
    <g id="line2d_25">
     <path d="M 83.891267 179.313755 
L 109.891267 179.313755 
" style="fill:none;stroke:#a6cee3;stroke-linecap:round;stroke-width:2.25;"/>
    </g>
    <g id="line2d_26"/>
    <g id="text_15">
     <!-- MF, Fmax = 0.64 -->
     <g style="fill:#262626;" transform="translate(120.291267 183.863755)scale(0.13 -0.13)">
      <defs>
       <path d="M 7.421875 0 
L 7.421875 71.578125 
L 21.6875 71.578125 
L 38.625 20.90625 
Q 40.96875 13.8125 42.046875 10.296875 
Q 43.265625 14.203125 45.84375 21.78125 
L 62.984375 71.578125 
L 75.734375 71.578125 
L 75.734375 0 
L 66.609375 0 
L 66.609375 59.90625 
L 45.796875 0 
L 37.25 0 
L 16.546875 60.9375 
L 16.546875 0 
z
" id="ArialMT-77"/>
       <path d="M 8.203125 0 
L 8.203125 71.578125 
L 56.5 71.578125 
L 56.5 63.140625 
L 17.671875 63.140625 
L 17.671875 40.96875 
L 51.265625 40.96875 
L 51.265625 32.515625 
L 17.671875 32.515625 
L 17.671875 0 
z
" id="ArialMT-70"/>
       <path d="M 8.890625 0 
L 8.890625 10.015625 
L 18.890625 10.015625 
L 18.890625 0 
Q 18.890625 -5.515625 16.9375 -8.90625 
Q 14.984375 -12.3125 10.75 -14.15625 
L 8.296875 -10.40625 
Q 11.078125 -9.1875 12.390625 -6.8125 
Q 13.71875 -4.4375 13.875 0 
z
" id="ArialMT-44"/>
       <path id="ArialMT-32"/>
       <path d="M 6.59375 0 
L 6.59375 51.859375 
L 14.453125 51.859375 
L 14.453125 44.578125 
Q 16.890625 48.390625 20.9375 50.703125 
Q 25 53.03125 30.171875 53.03125 
Q 35.9375 53.03125 39.625 50.640625 
Q 43.3125 48.25 44.828125 43.953125 
Q 50.984375 53.03125 60.84375 53.03125 
Q 68.5625 53.03125 72.703125 48.75 
Q 76.859375 44.484375 76.859375 35.59375 
L 76.859375 0 
L 68.109375 0 
L 68.109375 32.671875 
Q 68.109375 37.9375 67.25 40.25 
Q 66.40625 42.578125 64.15625 43.984375 
Q 61.921875 45.40625 58.890625 45.40625 
Q 53.421875 45.40625 49.796875 41.765625 
Q 46.1875 38.140625 46.1875 30.125 
L 46.1875 0 
L 37.40625 0 
L 37.40625 33.6875 
Q 37.40625 39.546875 35.25 42.46875 
Q 33.109375 45.40625 28.21875 45.40625 
Q 24.515625 45.40625 21.359375 43.453125 
Q 18.21875 41.5 16.796875 37.734375 
Q 15.375 33.984375 15.375 26.90625 
L 15.375 0 
z
" id="ArialMT-109"/>
       <path d="M 0.734375 0 
L 19.671875 26.953125 
L 2.15625 51.859375 
L 13.140625 51.859375 
L 21.09375 39.703125 
Q 23.34375 36.234375 24.703125 33.890625 
Q 26.859375 37.109375 28.65625 39.59375 
L 37.40625 51.859375 
L 47.90625 51.859375 
L 29.984375 27.4375 
L 49.265625 0 
L 38.484375 0 
L 27.828125 16.109375 
L 25 20.453125 
L 11.375 0 
z
" id="ArialMT-120"/>
       <path d="M 52.828125 42.09375 
L 5.5625 42.09375 
L 5.5625 50.296875 
L 52.828125 50.296875 
z
M 52.828125 20.359375 
L 5.5625 20.359375 
L 5.5625 28.5625 
L 52.828125 28.5625 
z
" id="ArialMT-61"/>
      </defs>
      <use xlink:href="#ArialMT-77"/>
      <use x="83.300781" xlink:href="#ArialMT-70"/>
      <use x="133.259766" xlink:href="#ArialMT-44"/>
      <use x="161.042969" xlink:href="#ArialMT-32"/>
      <use x="188.826172" xlink:href="#ArialMT-70"/>
      <use x="249.910156" xlink:href="#ArialMT-109"/>
      <use x="333.210938" xlink:href="#ArialMT-97"/>
      <use x="388.826172" xlink:href="#ArialMT-120"/>
      <use x="438.826172" xlink:href="#ArialMT-32"/>
      <use x="466.609375" xlink:href="#ArialMT-61"/>
      <use x="525.007812" xlink:href="#ArialMT-32"/>
      <use x="552.791016" xlink:href="#ArialMT-48"/>
      <use x="608.40625" xlink:href="#ArialMT-46"/>
      <use x="636.189453" xlink:href="#ArialMT-54"/>
      <use x="691.804688" xlink:href="#ArialMT-52"/>
     </g>
    </g>
    <g id="line2d_27">
     <path d="M 83.891267 197.702662 
L 109.891267 197.702662 
" style="fill:none;stroke:#b2df8a;stroke-linecap:round;stroke-width:2.25;"/>
    </g>
    <g id="line2d_28"/>
    <g id="text_16">
     <!-- BP, Fmax = 0.59 -->
     <g style="fill:#262626;" transform="translate(120.291267 202.252662)scale(0.13 -0.13)">
      <defs>
       <path d="M 7.328125 0 
L 7.328125 71.578125 
L 34.1875 71.578125 
Q 42.390625 71.578125 47.34375 69.40625 
Q 52.296875 67.234375 55.09375 62.71875 
Q 57.90625 58.203125 57.90625 53.265625 
Q 57.90625 48.6875 55.421875 44.625 
Q 52.9375 40.578125 47.90625 38.09375 
Q 54.390625 36.1875 57.875 31.59375 
Q 61.375 27 61.375 20.75 
Q 61.375 15.71875 59.25 11.390625 
Q 57.125 7.078125 54 4.734375 
Q 50.875 2.390625 46.15625 1.1875 
Q 41.453125 0 34.625 0 
z
M 16.796875 41.5 
L 32.28125 41.5 
Q 38.578125 41.5 41.3125 42.328125 
Q 44.921875 43.40625 46.75 45.890625 
Q 48.578125 48.390625 48.578125 52.15625 
Q 48.578125 55.71875 46.875 58.421875 
Q 45.171875 61.140625 41.984375 62.140625 
Q 38.8125 63.140625 31.109375 63.140625 
L 16.796875 63.140625 
z
M 16.796875 8.453125 
L 34.625 8.453125 
Q 39.203125 8.453125 41.0625 8.796875 
Q 44.34375 9.375 46.53125 10.734375 
Q 48.734375 12.109375 50.140625 14.71875 
Q 51.5625 17.328125 51.5625 20.75 
Q 51.5625 24.75 49.515625 27.703125 
Q 47.46875 30.671875 43.828125 31.859375 
Q 40.1875 33.0625 33.34375 33.0625 
L 16.796875 33.0625 
z
" id="ArialMT-66"/>
       <path d="M 4.15625 18.75 
L 13.375 19.53125 
Q 14.40625 12.796875 18.140625 9.390625 
Q 21.875 6 27.15625 6 
Q 33.5 6 37.890625 10.78125 
Q 42.28125 15.578125 42.28125 23.484375 
Q 42.28125 31 38.0625 35.34375 
Q 33.84375 39.703125 27 39.703125 
Q 22.75 39.703125 19.328125 37.765625 
Q 15.921875 35.84375 13.96875 32.765625 
L 5.71875 33.84375 
L 12.640625 70.609375 
L 48.25 70.609375 
L 48.25 62.203125 
L 19.671875 62.203125 
L 15.828125 42.96875 
Q 22.265625 47.46875 29.34375 47.46875 
Q 38.71875 47.46875 45.15625 40.96875 
Q 51.609375 34.46875 51.609375 24.265625 
Q 51.609375 14.546875 45.953125 7.46875 
Q 39.0625 -1.21875 27.15625 -1.21875 
Q 17.390625 -1.21875 11.203125 4.25 
Q 5.03125 9.71875 4.15625 18.75 
z
" id="ArialMT-53"/>
       <path d="M 5.46875 16.546875 
L 13.921875 17.328125 
Q 14.984375 11.375 18.015625 8.6875 
Q 21.046875 6 25.78125 6 
Q 29.828125 6 32.875 7.859375 
Q 35.9375 9.71875 37.890625 12.8125 
Q 39.84375 15.921875 41.15625 21.1875 
Q 42.484375 26.46875 42.484375 31.9375 
Q 42.484375 32.515625 42.4375 33.6875 
Q 39.796875 29.5 35.234375 26.875 
Q 30.671875 24.265625 25.34375 24.265625 
Q 16.453125 24.265625 10.296875 30.703125 
Q 4.15625 37.15625 4.15625 47.703125 
Q 4.15625 58.59375 10.578125 65.234375 
Q 17 71.875 26.65625 71.875 
Q 33.640625 71.875 39.421875 68.109375 
Q 45.21875 64.359375 48.21875 57.390625 
Q 51.21875 50.4375 51.21875 37.25 
Q 51.21875 23.53125 48.234375 15.40625 
Q 45.265625 7.28125 39.375 3.03125 
Q 33.5 -1.21875 25.59375 -1.21875 
Q 17.1875 -1.21875 11.859375 3.4375 
Q 6.546875 8.109375 5.46875 16.546875 
z
M 41.453125 48.140625 
Q 41.453125 55.71875 37.421875 60.15625 
Q 33.40625 64.59375 27.734375 64.59375 
Q 21.875 64.59375 17.53125 59.8125 
Q 13.1875 55.03125 13.1875 47.40625 
Q 13.1875 40.578125 17.3125 36.296875 
Q 21.4375 32.03125 27.484375 32.03125 
Q 33.59375 32.03125 37.515625 36.296875 
Q 41.453125 40.578125 41.453125 48.140625 
z
" id="ArialMT-57"/>
      </defs>
      <use xlink:href="#ArialMT-66"/>
      <use x="66.699219" xlink:href="#ArialMT-80"/>
      <use x="120.523438" xlink:href="#ArialMT-44"/>
      <use x="148.306641" xlink:href="#ArialMT-32"/>
      <use x="176.089844" xlink:href="#ArialMT-70"/>
      <use x="237.173828" xlink:href="#ArialMT-109"/>
      <use x="320.474609" xlink:href="#ArialMT-97"/>
      <use x="376.089844" xlink:href="#ArialMT-120"/>
      <use x="426.089844" xlink:href="#ArialMT-32"/>
      <use x="453.873047" xlink:href="#ArialMT-61"/>
      <use x="512.271484" xlink:href="#ArialMT-32"/>
      <use x="540.054688" xlink:href="#ArialMT-48"/>
      <use x="595.669922" xlink:href="#ArialMT-46"/>
      <use x="623.453125" xlink:href="#ArialMT-53"/>
      <use x="679.068359" xlink:href="#ArialMT-57"/>
     </g>
    </g>
    <g id="line2d_29">
     <path d="M 83.891267 216.091568 
L 109.891267 216.091568 
" style="fill:none;stroke:#fb9a99;stroke-linecap:round;stroke-width:2.25;"/>
    </g>
    <g id="line2d_30"/>
    <g id="text_17">
     <!-- CC, Fmax = 0.67 -->
     <g style="fill:#262626;" transform="translate(120.291267 220.641568)scale(0.13 -0.13)">
      <defs>
       <path d="M 58.796875 25.09375 
L 68.265625 22.703125 
Q 65.28125 11.03125 57.546875 4.90625 
Q 49.8125 -1.21875 38.625 -1.21875 
Q 27.046875 -1.21875 19.796875 3.484375 
Q 12.546875 8.203125 8.765625 17.140625 
Q 4.984375 26.078125 4.984375 36.328125 
Q 4.984375 47.515625 9.25 55.828125 
Q 13.53125 64.15625 21.40625 68.46875 
Q 29.296875 72.796875 38.765625 72.796875 
Q 49.515625 72.796875 56.828125 67.328125 
Q 64.15625 61.859375 67.046875 51.953125 
L 57.71875 49.75 
Q 55.21875 57.5625 50.484375 61.125 
Q 45.75 64.703125 38.578125 64.703125 
Q 30.328125 64.703125 24.78125 60.734375 
Q 19.234375 56.78125 16.984375 50.109375 
Q 14.75 43.453125 14.75 36.375 
Q 14.75 27.25 17.40625 20.4375 
Q 20.0625 13.625 25.671875 10.25 
Q 31.296875 6.890625 37.84375 6.890625 
Q 45.796875 6.890625 51.3125 11.46875 
Q 56.84375 16.0625 58.796875 25.09375 
z
" id="ArialMT-67"/>
       <path d="M 4.734375 62.203125 
L 4.734375 70.65625 
L 51.078125 70.65625 
L 51.078125 63.8125 
Q 44.234375 56.546875 37.515625 44.484375 
Q 30.8125 32.421875 27.15625 19.671875 
Q 24.515625 10.6875 23.78125 0 
L 14.75 0 
Q 14.890625 8.453125 18.0625 20.40625 
Q 21.234375 32.375 27.171875 43.484375 
Q 33.109375 54.59375 39.796875 62.203125 
z
" id="ArialMT-55"/>
      </defs>
      <use xlink:href="#ArialMT-67"/>
      <use x="72.216797" xlink:href="#ArialMT-67"/>
      <use x="144.433594" xlink:href="#ArialMT-44"/>
      <use x="172.216797" xlink:href="#ArialMT-32"/>
      <use x="200" xlink:href="#ArialMT-70"/>
      <use x="261.083984" xlink:href="#ArialMT-109"/>
      <use x="344.384766" xlink:href="#ArialMT-97"/>
      <use x="400" xlink:href="#ArialMT-120"/>
      <use x="450" xlink:href="#ArialMT-32"/>
      <use x="477.783203" xlink:href="#ArialMT-61"/>
      <use x="536.181641" xlink:href="#ArialMT-32"/>
      <use x="563.964844" xlink:href="#ArialMT-48"/>
      <use x="619.580078" xlink:href="#ArialMT-46"/>
      <use x="647.363281" xlink:href="#ArialMT-54"/>
      <use x="702.978516" xlink:href="#ArialMT-55"/>
     </g>
    </g>
    <g id="line2d_31">
     <path d="M 83.891267 234.519068 
L 109.891267 234.519068 
" style="fill:none;stroke:#1f78b4;stroke-linecap:round;stroke-width:2.25;"/>
    </g>
    <g id="line2d_32"/>
    <g id="text_18">
     <!-- MF, preinit, Fmax = 0.85 -->
     <g style="fill:#262626;" transform="translate(120.291267 239.069068)scale(0.13 -0.13)">
      <defs>
       <path d="M 6.59375 -19.875 
L 6.59375 51.859375 
L 14.59375 51.859375 
L 14.59375 45.125 
Q 17.4375 49.078125 21 51.046875 
Q 24.5625 53.03125 29.640625 53.03125 
Q 36.28125 53.03125 41.359375 49.609375 
Q 46.4375 46.1875 49.015625 39.953125 
Q 51.609375 33.734375 51.609375 26.3125 
Q 51.609375 18.359375 48.75 11.984375 
Q 45.90625 5.609375 40.453125 2.21875 
Q 35.015625 -1.171875 29 -1.171875 
Q 24.609375 -1.171875 21.109375 0.6875 
Q 17.625 2.546875 15.375 5.375 
L 15.375 -19.875 
z
M 14.546875 25.640625 
Q 14.546875 15.625 18.59375 10.84375 
Q 22.65625 6.0625 28.421875 6.0625 
Q 34.28125 6.0625 38.453125 11.015625 
Q 42.625 15.96875 42.625 26.375 
Q 42.625 36.28125 38.546875 41.203125 
Q 34.46875 46.140625 28.8125 46.140625 
Q 23.1875 46.140625 18.859375 40.890625 
Q 14.546875 35.640625 14.546875 25.640625 
z
" id="ArialMT-112"/>
       <path d="M 25.78125 7.859375 
L 27.046875 0.09375 
Q 23.34375 -0.6875 20.40625 -0.6875 
Q 15.625 -0.6875 12.984375 0.828125 
Q 10.359375 2.34375 9.28125 4.8125 
Q 8.203125 7.28125 8.203125 15.1875 
L 8.203125 45.015625 
L 1.765625 45.015625 
L 1.765625 51.859375 
L 8.203125 51.859375 
L 8.203125 64.703125 
L 16.9375 69.96875 
L 16.9375 51.859375 
L 25.78125 51.859375 
L 25.78125 45.015625 
L 16.9375 45.015625 
L 16.9375 14.703125 
Q 16.9375 10.9375 17.40625 9.859375 
Q 17.875 8.796875 18.921875 8.15625 
Q 19.96875 7.515625 21.921875 7.515625 
Q 23.390625 7.515625 25.78125 7.859375 
z
" id="ArialMT-116"/>
      </defs>
      <use xlink:href="#ArialMT-77"/>
      <use x="83.300781" xlink:href="#ArialMT-70"/>
      <use x="133.259766" xlink:href="#ArialMT-44"/>
      <use x="161.042969" xlink:href="#ArialMT-32"/>
      <use x="188.826172" xlink:href="#ArialMT-112"/>
      <use x="244.441406" xlink:href="#ArialMT-114"/>
      <use x="277.742188" xlink:href="#ArialMT-101"/>
      <use x="333.357422" xlink:href="#ArialMT-105"/>
      <use x="355.574219" xlink:href="#ArialMT-110"/>
      <use x="411.189453" xlink:href="#ArialMT-105"/>
      <use x="433.40625" xlink:href="#ArialMT-116"/>
      <use x="461.189453" xlink:href="#ArialMT-44"/>
      <use x="488.972656" xlink:href="#ArialMT-32"/>
      <use x="516.755859" xlink:href="#ArialMT-70"/>
      <use x="577.839844" xlink:href="#ArialMT-109"/>
      <use x="661.140625" xlink:href="#ArialMT-97"/>
      <use x="716.755859" xlink:href="#ArialMT-120"/>
      <use x="766.755859" xlink:href="#ArialMT-32"/>
      <use x="794.539062" xlink:href="#ArialMT-61"/>
      <use x="852.9375" xlink:href="#ArialMT-32"/>
      <use x="880.720703" xlink:href="#ArialMT-48"/>
      <use x="936.335938" xlink:href="#ArialMT-46"/>
      <use x="964.119141" xlink:href="#ArialMT-56"/>
      <use x="1019.734375" xlink:href="#ArialMT-53"/>
     </g>
    </g>
    <g id="line2d_33">
     <path d="M 83.891267 252.946568 
L 109.891267 252.946568 
" style="fill:none;stroke:#33a02c;stroke-linecap:round;stroke-width:2.25;"/>
    </g>
    <g id="line2d_34"/>
    <g id="text_19">
     <!-- BP, preinit, Fmax = 0.80 -->
     <g style="fill:#262626;" transform="translate(120.291267 257.496568)scale(0.13 -0.13)">
      <use xlink:href="#ArialMT-66"/>
      <use x="66.699219" xlink:href="#ArialMT-80"/>
      <use x="120.523438" xlink:href="#ArialMT-44"/>
      <use x="148.306641" xlink:href="#ArialMT-32"/>
      <use x="176.089844" xlink:href="#ArialMT-112"/>
      <use x="231.705078" xlink:href="#ArialMT-114"/>
      <use x="265.005859" xlink:href="#ArialMT-101"/>
      <use x="320.621094" xlink:href="#ArialMT-105"/>
      <use x="342.837891" xlink:href="#ArialMT-110"/>
      <use x="398.453125" xlink:href="#ArialMT-105"/>
      <use x="420.669922" xlink:href="#ArialMT-116"/>
      <use x="448.453125" xlink:href="#ArialMT-44"/>
      <use x="476.236328" xlink:href="#ArialMT-32"/>
      <use x="504.019531" xlink:href="#ArialMT-70"/>
      <use x="565.103516" xlink:href="#ArialMT-109"/>
      <use x="648.404297" xlink:href="#ArialMT-97"/>
      <use x="704.019531" xlink:href="#ArialMT-120"/>
      <use x="754.019531" xlink:href="#ArialMT-32"/>
      <use x="781.802734" xlink:href="#ArialMT-61"/>
      <use x="840.201172" xlink:href="#ArialMT-32"/>
      <use x="867.984375" xlink:href="#ArialMT-48"/>
      <use x="923.599609" xlink:href="#ArialMT-46"/>
      <use x="951.382812" xlink:href="#ArialMT-56"/>
      <use x="1006.998047" xlink:href="#ArialMT-48"/>
     </g>
    </g>
    <g id="line2d_35">
     <path d="M 83.891267 271.493912 
L 109.891267 271.493912 
" style="fill:none;stroke:#e31a1c;stroke-linecap:round;stroke-width:2.25;"/>
    </g>
    <g id="line2d_36"/>
    <g id="text_20">
     <!-- CC, preinit, Fmax = 0.78 -->
     <g style="fill:#262626;" transform="translate(120.291267 276.043912)scale(0.13 -0.13)">
      <use xlink:href="#ArialMT-67"/>
      <use x="72.216797" xlink:href="#ArialMT-67"/>
      <use x="144.433594" xlink:href="#ArialMT-44"/>
      <use x="172.216797" xlink:href="#ArialMT-32"/>
      <use x="200" xlink:href="#ArialMT-112"/>
      <use x="255.615234" xlink:href="#ArialMT-114"/>
      <use x="288.916016" xlink:href="#ArialMT-101"/>
      <use x="344.53125" xlink:href="#ArialMT-105"/>
      <use x="366.748047" xlink:href="#ArialMT-110"/>
      <use x="422.363281" xlink:href="#ArialMT-105"/>
      <use x="444.580078" xlink:href="#ArialMT-116"/>
      <use x="472.363281" xlink:href="#ArialMT-44"/>
      <use x="500.146484" xlink:href="#ArialMT-32"/>
      <use x="527.929688" xlink:href="#ArialMT-70"/>
      <use x="589.013672" xlink:href="#ArialMT-109"/>
      <use x="672.314453" xlink:href="#ArialMT-97"/>
      <use x="727.929688" xlink:href="#ArialMT-120"/>
      <use x="777.929688" xlink:href="#ArialMT-32"/>
      <use x="805.712891" xlink:href="#ArialMT-61"/>
      <use x="864.111328" xlink:href="#ArialMT-32"/>
      <use x="891.894531" xlink:href="#ArialMT-48"/>
      <use x="947.509766" xlink:href="#ArialMT-46"/>
      <use x="975.292969" xlink:href="#ArialMT-55"/>
      <use x="1030.908203" xlink:href="#ArialMT-56"/>
     </g>
    </g>
   </g>
  </g>
 </g>
 <defs>
  <clipPath id="p6cb54b8477">
   <rect height="270.155323" width="268.368733" x="72.191267" y="20.172338"/>
  </clipPath>
 </defs>
</svg>
